<svg width="192" height="192" viewBox="0 0 192 192" fill="none" xmlns="http://www.w3.org/2000/svg">
<path fill-rule="evenodd" clip-rule="evenodd" d="M46.8569 8.60479C43.7898 5.59332 38.8172 5.59332 35.7501 8.60479L13.5366 30.4158C10.4696 33.4272 10.4696 38.3098 13.5366 41.3213L31.5439 59.0023L31.544 141.2C23.0831 144.71 17.1456 152.934 17.1456 162.52C17.1456 175.296 27.6942 185.654 40.7066 185.654C53.7189 185.654 64.2676 175.296 64.2676 162.52C64.2676 152.934 58.33 144.71 49.8692 141.2L49.8692 111.111H79.9745V93.1175H49.8692L49.8692 60.1746L64.7489 45.5645L125.788 45.5645V27.5713L66.1735 27.5713L46.8569 8.60479ZM133.642 19.86C133.642 15.6011 137.158 12.1486 141.495 12.1486H172.91C177.247 12.1486 180.764 15.6011 180.764 19.86V50.7054C180.764 54.9642 177.247 58.4167 172.91 58.4167H141.495C137.158 58.4167 133.642 54.9642 133.642 50.7054V19.86ZM95.6822 77.6951C91.3448 77.6951 87.8286 81.1475 87.8286 85.4064V116.252C87.8286 120.511 91.3448 123.963 95.6822 123.963H127.097C131.434 123.963 134.951 120.511 134.951 116.252V85.4064C134.951 81.1475 131.434 77.6951 127.097 77.6951H95.6822ZM40.511 174.706C47.1835 174.706 52.5926 169.395 52.5926 162.843C52.5926 156.292 47.1835 150.981 40.511 150.981C33.8386 150.981 28.4295 156.292 28.4295 162.843C28.4295 169.395 33.8386 174.706 40.511 174.706Z" fill="#2D77EF"/>
</svg>
