<svg width="589" height="271" viewBox="0 0 589 271" fill="none" xmlns="http://www.w3.org/2000/svg">
<path d="M0.538391 269H14.0801V235V216.708H14.1634C15.5384 222.5 16.9551 228.208 18.5801 233.875L29.1634 269H45.1634L55.6217 233.875C57.2467 228.208 58.7051 222.5 60.1634 216.708H60.2467V235V269H73.7884V200.958H51.7467L41.5384 236.125C40.0801 241.5 38.8717 246.542 37.5801 252.75H37.4134C36.2467 247.208 34.9134 241.5 33.4551 236.125L23.3301 200.958H0.538391V269ZM127.74 269.792C130.865 269.792 133.115 269.292 135.407 268.458L135.282 257.917C131.157 258.417 129.324 257.583 129.324 253.375V234.917C129.324 221.917 122.074 215.417 107.782 215.417C94.4902 215.417 86.6569 220.792 85.1152 232.708L99.3652 234.417C100.074 228.917 102.24 226.875 107.574 226.875C113.074 226.875 115.324 229.75 115.324 235.833V241.458C112.032 239.792 108.157 238.958 103.324 238.958C89.9486 238.958 83.1986 244.708 83.1986 254.542C83.1986 264.083 89.9069 270.292 101.032 270.292C107.74 270.292 113.115 268.292 116.157 263.167C117.699 267.625 121.615 269.792 127.74 269.792ZM98.3236 254.333C98.3236 250.5 100.782 248.5 106.282 248.5C109.907 248.5 112.657 249.167 115.324 250.625V256.542C112.615 259.125 109.532 260.167 105.74 260.167C100.865 260.167 98.3236 258.167 98.3236 254.333ZM163.161 270.292C175.661 270.292 183.452 264.125 183.452 253.5C183.452 243.167 176.952 239.5 166.661 237.125L162.577 236.167C158.077 235.208 155.494 234.167 155.494 230.875C155.494 228.458 157.577 226.708 161.911 226.708C167.661 226.708 172.702 228.917 176.869 232.875L183.744 223.167C178.494 218.125 170.702 215.417 161.786 215.417C149.536 215.417 141.494 221.667 141.494 231.917C141.494 242.917 149.577 246.667 158.161 248.75L162.327 249.708C166.702 250.75 169.369 251.625 169.369 254.792C169.369 257.375 167.119 258.917 162.869 258.917C157.244 258.917 151.494 256.75 146.202 252.5L139.661 262.875C146.369 268.042 153.702 270.292 163.161 270.292ZM212.873 269.708C216.248 269.708 220.04 269.292 223.79 268.167L222.831 256.208C220.748 256.708 219.165 256.917 217.331 256.917C213.04 256.917 211.706 255.542 211.706 250.958V228.917H223.373V216.708H211.706V201.167L196.706 203.542V216.708H189.915V228.917H196.706V253.667C196.706 264.833 202.04 269.708 212.873 269.708ZM255.529 270.292C264.154 270.292 271.071 267.458 276.071 261.833L270.446 253.208C266.904 256.75 262.696 258.417 257.238 258.417C249.321 258.417 245.571 254.083 244.488 247.583H276.446C276.904 244.875 277.113 242.25 277.113 239.792C277.113 225.333 269.613 215.417 254.488 215.417C237.571 215.417 229.113 226.958 229.113 242.792C229.113 257.958 236.821 270.292 255.529 270.292ZM244.404 237.292C245.196 230.708 248.238 226.417 254.363 226.417C260.613 226.417 262.738 230.708 262.488 237.292H244.404ZM286.035 269H301.035V238.375C304.41 232.5 309.493 231.125 317.16 231.583V215.417C308.618 214.958 303.035 218.042 299.826 225.958L298.66 216.708H286.035V269Z" fill="white"/>
<path d="M377.205 270.292C393.122 270.292 402.747 263.417 406.247 247.542L390.33 244.083C388.663 253.5 384.455 257.458 377.205 257.458C367.122 257.458 361.955 249.625 361.955 234.917C361.955 220.25 367.122 212.542 377.205 212.542C384.247 212.542 388.413 216.292 390.247 225.583L406.455 222.042C402.997 206.333 393.413 199.667 377.205 199.667C353.872 199.667 344.663 215.375 344.663 234.917C344.663 254.5 353.872 270.292 377.205 270.292ZM448.446 236.083V269H463.446V235.5C463.446 221.667 457.446 215.417 445.571 215.417C439.154 215.417 434.363 217.792 431.113 223V197.042H416.113V269H431.113V237.167C432.821 231.125 436.571 228.25 441.488 228.25C446.446 228.25 448.446 231.042 448.446 236.083ZM474.718 269H489.718V216.708H474.718V269ZM473.218 202.958C473.218 207.625 476.635 210.667 482.218 210.667C487.843 210.667 491.218 207.625 491.218 202.958C491.218 198.333 487.843 195.292 482.218 195.292C476.635 195.292 473.218 198.333 473.218 202.958ZM524.963 270.292C533.588 270.292 540.505 267.458 545.505 261.833L539.88 253.208C536.338 256.75 532.13 258.417 526.671 258.417C518.755 258.417 515.005 254.083 513.921 247.583H545.88C546.338 244.875 546.546 242.25 546.546 239.792C546.546 225.333 539.046 215.417 523.921 215.417C507.005 215.417 498.546 226.958 498.546 242.792C498.546 257.958 506.255 270.292 524.963 270.292ZM513.838 237.292C514.63 230.708 517.671 226.417 523.796 226.417C530.046 226.417 532.171 230.708 531.921 237.292H513.838ZM558.593 213.042V216.708H551.926V228.917H558.593V269H573.593V228.917H584.635V216.708H573.593V214.125C573.593 209 575.76 207.083 579.468 207.083C581.51 207.083 583.26 207.583 585.176 208.667L588.385 197.917C585.176 196.375 581.468 195.667 577.343 195.667C566.385 195.667 558.593 201.583 558.593 213.042Z" fill="#2D77EF"/>
<rect x="255.148" y="111" width="14" height="83" transform="rotate(180 255.148 111)" fill="#2D77EF"/>
<rect x="319.148" y="7" width="36" height="36" rx="6" fill="#2D77EF"/>
<rect x="284.148" y="58" width="36" height="36" rx="6" fill="#2D77EF"/>
<rect x="234.728" y="110.58" width="26.8395" height="26.8395" rx="13.4198" stroke="#2D77EF" stroke-width="9.16046"/>
<rect x="248.604" width="36" height="36" rx="6" transform="rotate(45 248.604 0)" fill="#2D77EF"/>
<path d="M313.148 33L242.148 33L242.148 19L313.148 19V33Z" fill="#2D77EF"/>
<path d="M278.148 84L245.148 84L245.148 70L278.148 70V84Z" fill="#2D77EF"/>
</svg>
